<?xml version="1.0" encoding="UTF-8"?>
<svg version="1.1" xmlns="http://www.w3.org/2000/svg" width="16" height="16">
<path d="M0 0 C3.71317907 1.14770989 5.2692056 1.85342428 7.4375 5.0625 C8 8 8 8 7.4375 11.0625 C4.98155875 14.38524404 3.5118356 15.83868008 -0.5625 16.6875 C-4.6368356 15.83868008 -6.10655875 14.38524404 -8.5625 11.0625 C-9.1875 8.0625 -9.1875 8.0625 -8.5625 5.0625 C-5.88937913 1.25532785 -4.71546409 0.08272744 0 0 Z " fill="#E10A0A" transform="translate(8.5625,-0.0625)"/>
<path d="M0 0 C3.86355812 1.01672582 5.33864648 1.64619679 7.5625 4.9375 C7.8125 8.1875 7.8125 8.1875 7.5625 10.9375 C4.5925 10.6075 1.6225 10.2775 -1.4375 9.9375 C-1.4375 10.5975 -1.4375 11.2575 -1.4375 11.9375 C-0.7775 12.2675 -0.1175 12.5975 0.5625 12.9375 C-0.4275 12.9375 -1.4175 12.9375 -2.4375 12.9375 C-2.4375 12.2775 -2.4375 11.6175 -2.4375 10.9375 C-3.7575 10.2775 -5.0775 9.6175 -6.4375 8.9375 C-3.1375 8.6075 0.1625 8.2775 3.5625 7.9375 C3.5625 6.2875 3.5625 4.6375 3.5625 2.9375 C2.2425 2.6075 0.9225 2.2775 -0.4375 1.9375 C-0.7675 2.5975 -1.0975 3.2575 -1.4375 3.9375 C-1.4375 3.2775 -1.4375 2.6175 -1.4375 1.9375 C-3.0875 2.2675 -4.7375 2.5975 -6.4375 2.9375 C-4.44557318 0.00819585 -3.63274501 -0.06604991 0 0 Z " fill="#891818" transform="translate(8.4375,0.0625)"/>
<path d="M0 0 C1.98 0.66 3.96 1.32 6 2 C6.33 1.67 6.66 1.34 7 1 C9.67058851 0.85884839 12.32432238 0.95752893 15 1 C14.6875 2.875 14.6875 2.875 14 5 C10.48175489 7.34549674 9.14224306 7.57991403 5 7 C2.125 4.625 2.125 4.625 0 2 C0 1.34 0 0.68 0 0 Z " fill="#CDCDCD" transform="translate(0,9)"/>
<path d="M0 0 C1.32 0 2.64 0 4 0 C3.6875 1.875 3.6875 1.875 3 4 C-0.4352048 6.29013653 -1.985331 6.17842973 -6 6 C-6 5.67 -6 5.34 -6 5 C-2.535 4.505 -2.535 4.505 1 4 C0.67 2.68 0.34 1.36 0 0 Z " fill="#949494" transform="translate(11,10)"/>
<path d="M0 0 C-1 2 -2 4 -3 6 C-3.66 6 -4.32 6 -5 6 C-5 4.35 -5 2.7 -5 1 C-3 0 -3 0 0 0 Z " fill="#F97170" transform="translate(7,2)"/>
</svg>
